name ./resultDataOpenSim/trcMotMarkerGrf/sub06/grf-01-01.mot
datacolumns 19
datarows 30
range 1.41600000 1.53200000
endheader

                time	     ground_force_vx	     ground_force_vy	     ground_force_vz	     ground_force_px	     ground_force_py	     ground_force_pz	   l_ground_force_vx	   l_ground_force_vy	   l_ground_force_vz	   l_ground_force_px	   l_ground_force_py	   l_ground_force_pz	     ground_torque_x	     ground_torque_y	     ground_torque_z	   l_ground_torque_x	   l_ground_torque_y	   l_ground_torque_z	
          1.41600000	         99.10333354	        660.85597385	        -21.77465936	          0.82905002	          0.00000000	          0.10897459	          0.00000000	          0.00000000	          0.00000000	          0.00000000	          0.00000000	          0.00000000	          0.00000000	          4.59301208	          0.00000000	          0.00000000	          0.00000000	          0.00000000	
          1.42000000	        105.76335093	        675.31467431	        -24.40561373	          0.82934348	          0.00000000	          0.10888703	          0.00000000	          0.00000000	          0.00000000	          0.00000000	          0.00000000	          0.00000000	          0.00000000	          4.72410839	          0.00000000	          0.00000000	          0.00000000	          0.00000000	
          1.42400000	        112.48047362	        688.78399547	        -26.16751912	          0.82964456	          0.00000000	          0.10878628	          0.00000000	          0.00000000	          0.00000000	          0.00000000	          0.00000000	          0.00000000	          0.00000000	          4.77666617	          0.00000000	          0.00000000	          0.00000000	          0.00000000	
          1.42800000	        119.24088204	        701.14215755	        -26.96524374	          0.82994759	          0.00000000	          0.10866393	          0.00000000	          0.00000000	          0.00000000	          0.00000000	          0.00000000	          0.00000000	          0.00000000	          4.74259333	          0.00000000	          0.00000000	          0.00000000	          0.00000000	
          1.43200000	        126.03586850	        712.24045964	        -26.88119436	          0.83024642	          0.00000000	          0.10852321	          0.00000000	          0.00000000	          0.00000000	          0.00000000	          0.00000000	          0.00000000	          0.00000000	          4.62807192	          0.00000000	          0.00000000	          0.00000000	          0.00000000	
          1.43600000	        132.83707984	        721.92342299	        -26.14676581	          0.83052468	          0.00000000	          0.10837064	          0.00000000	          0.00000000	          0.00000000	          0.00000000	          0.00000000	          0.00000000	          0.00000000	          4.45338186	          0.00000000	          0.00000000	          0.00000000	          0.00000000	
          1.44000000	        139.58465416	        730.05025224	        -25.09592797	          0.83077846	          0.00000000	          0.10820997	          0.00000000	          0.00000000	          0.00000000	          0.00000000	          0.00000000	          0.00000000	          0.00000000	          4.24937513	          0.00000000	          0.00000000	          0.00000000	          0.00000000	
          1.44400000	        146.19231580	        736.49386581	        -24.10137691	          0.83101630	          0.00000000	          0.10804434	          0.00000000	          0.00000000	          0.00000000	          0.00000000	          0.00000000	          0.00000000	          0.00000000	          4.05134296	          0.00000000	          0.00000000	          0.00000000	          0.00000000	
          1.44800000	        152.57085043	        741.13670115	        -23.49920243	          0.83125068	          0.00000000	          0.10787873	          0.00000000	          0.00000000	          0.00000000	          0.00000000	          0.00000000	          0.00000000	          0.00000000	          3.89181345	          0.00000000	          0.00000000	          0.00000000	          0.00000000	
          1.45200000	        158.66795744	        743.88253628	        -23.51481514	          0.83149653	          0.00000000	          0.10771997	          0.00000000	          0.00000000	          0.00000000	          0.00000000	          0.00000000	          0.00000000	          0.00000000	          3.79392440	          0.00000000	          0.00000000	          0.00000000	          0.00000000	
          1.45600000	        164.51602015	        744.67984171	        -24.20732285	          0.83176194	          0.00000000	          0.10757034	          0.00000000	          0.00000000	          0.00000000	          0.00000000	          0.00000000	          0.00000000	          0.00000000	          3.76661258	          0.00000000	          0.00000000	          0.00000000	          0.00000000	
          1.46000000	        170.26913849	        743.53380413	        -25.45011688	          0.83204540	          0.00000000	          0.10742433	          0.00000000	          0.00000000	          0.00000000	          0.00000000	          0.00000000	          0.00000000	          0.00000000	          3.80246186	          0.00000000	          0.00000000	          0.00000000	          0.00000000	
          1.46400000	        176.18061179	        740.47729979	        -26.96288778	          0.83232563	          0.00000000	          0.10727160	          0.00000000	          0.00000000	          0.00000000	          0.00000000	          0.00000000	          0.00000000	          0.00000000	          3.87896767	          0.00000000	          0.00000000	          0.00000000	          0.00000000	
          1.46800000	        182.47997657	        735.50629978	        -28.39262642	          0.83254160	          0.00000000	          0.10710179	          0.00000000	          0.00000000	          0.00000000	          0.00000000	          0.00000000	          0.00000000	          0.00000000	          3.96379865	          0.00000000	          0.00000000	          0.00000000	          0.00000000	
          1.47200000	        189.21873921	        728.54972285	        -29.39941987	          0.83263555	          0.00000000	          0.10691324	          0.00000000	          0.00000000	          0.00000000	          0.00000000	          0.00000000	          0.00000000	          0.00000000	          4.02345926	          0.00000000	          0.00000000	          0.00000000	          0.00000000	
          1.47600000	        196.21320319	        719.51982150	        -29.70206288	          0.83261912	          0.00000000	          0.10670691	          0.00000000	          0.00000000	          0.00000000	          0.00000000	          0.00000000	          0.00000000	          0.00000000	          4.03261333	          0.00000000	          0.00000000	          0.00000000	          0.00000000	
          1.48000000	        203.10964670	        708.35917913	        -29.10535416	          0.83252900	          0.00000000	          0.10646811	          0.00000000	          0.00000000	          0.00000000	          0.00000000	          0.00000000	          0.00000000	          0.00000000	          3.98006091	          0.00000000	          0.00000000	          0.00000000	          0.00000000	
          1.48400000	        209.49390439	        694.98483073	        -27.53565538	          0.83238473	          0.00000000	          0.10618261	          0.00000000	          0.00000000	          0.00000000	          0.00000000	          0.00000000	          0.00000000	          0.00000000	          3.86861991	          0.00000000	          0.00000000	          0.00000000	          0.00000000	
          1.48800000	        214.98499148	        679.18386634	        -25.05861501	          0.83221222	          0.00000000	          0.10585361	          0.00000000	          0.00000000	          0.00000000	          0.00000000	          0.00000000	          0.00000000	          0.00000000	          3.70934686	          0.00000000	          0.00000000	          0.00000000	          0.00000000	
          1.49200000	        219.30855386	        660.57917902	        -21.87771106	          0.83202760	          0.00000000	          0.10548899	          0.00000000	          0.00000000	          0.00000000	          0.00000000	          0.00000000	          0.00000000	          0.00000000	          3.51370584	          0.00000000	          0.00000000	          0.00000000	          0.00000000	
          1.49600000	        222.32302701	        638.68306010	        -18.31391072	          0.83181327	          0.00000000	          0.10510191	          0.00000000	          0.00000000	          0.00000000	          0.00000000	          0.00000000	          0.00000000	          0.00000000	          3.28845244	          0.00000000	          0.00000000	          0.00000000	          0.00000000	
          1.50000000	        223.93290873	        612.97786245	        -14.72709279	          0.83155000	          0.00000000	          0.10470710	          0.00000000	          0.00000000	          0.00000000	          0.00000000	          0.00000000	          0.00000000	          0.00000000	          3.03601737	          0.00000000	          0.00000000	          0.00000000	          0.00000000	
          1.50400000	        223.91104942	        582.99596211	        -11.41282383	          0.83119645	          0.00000000	          0.10432157	          0.00000000	          0.00000000	          0.00000000	          0.00000000	          0.00000000	          0.00000000	          0.00000000	          2.75939775	          0.00000000	          0.00000000	          0.00000000	          0.00000000	
          1.50800000	        221.77450226	        548.43427329	         -8.55220574	          0.83074826	          0.00000000	          0.10397828	          0.00000000	          0.00000000	          0.00000000	          0.00000000	          0.00000000	          0.00000000	          0.00000000	          2.46778767	          0.00000000	          0.00000000	          0.00000000	          0.00000000	
          1.51200000	        216.84119356	        509.31857346	         -6.21055792	          0.83028205	          0.00000000	          0.10371370	          0.00000000	          0.00000000	          0.00000000	          0.00000000	          0.00000000	          0.00000000	          0.00000000	          2.17895912	          0.00000000	          0.00000000	          0.00000000	          0.00000000	
          1.51600000	        208.45415660	        466.13875908	         -4.35145361	          0.82991696	          0.00000000	          0.10353436	          0.00000000	          0.00000000	          0.00000000	          0.00000000	          0.00000000	          0.00000000	          0.00000000	          1.91663904	          0.00000000	          0.00000000	          0.00000000	          0.00000000	
          1.52000000	        196.23620977	        419.85325176	         -2.88369437	          0.82980206	          0.00000000	          0.10340673	          0.00000000	          0.00000000	          0.00000000	          0.00000000	          0.00000000	          0.00000000	          0.00000000	          1.70435979	          0.00000000	          0.00000000	          0.00000000	          0.00000000	
          1.52400000	        180.23310215	        371.76435568	         -1.74176054	          0.83011295	          0.00000000	          0.10329724	          0.00000000	          0.00000000	          0.00000000	          0.00000000	          0.00000000	          0.00000000	          0.00000000	          1.55906997	          0.00000000	          0.00000000	          0.00000000	          0.00000000	
          1.52800000	        160.90867917	        323.37250010	         -0.90132206	          0.83099769	          0.00000000	          0.10322902	          0.00000000	          0.00000000	          0.00000000	          0.00000000	          0.00000000	          0.00000000	          0.00000000	          1.48690859	          0.00000000	          0.00000000	          0.00000000	          0.00000000	
          1.53200000	        139.08140841	        276.27835797	         -0.29951195	          0.83260583	          0.00000000	          0.10321961	          0.00000000	          0.00000000	          0.00000000	          0.00000000	          0.00000000	          0.00000000	          0.00000000	          1.48146933	          0.00000000	          0.00000000	          0.00000000	          0.00000000	
